# xmcd
#
# Track frame offsets:
#	150
#	24160
#	42037
#	58341
#	78556
#	97243
#	113734
#	124831
#	143622
#	154378
#	166278
#	187072
#	207214
#	224859
#
# Disc length: 3187 seconds
#
# Revision: 1
# Processed by: cddbd v1.5.2PL0 Copyright (c) Steve Scherf et al.
# Submitted via: EasyCDDAExtractor 2010.6.0.0
#
DISCID=cf0c710e
DTITLE=Various Artist - Emozioni In Musica-28-Aria Di Mare
DYEAR=1998
DGENRE=Italiani
TTITLE0=Lucio Dalla - Com'è Profondo Il Mare 1977
TTITLE1=Mango - Mediterraneo 1992
TTITLE2=Paolo Conte - Blue Haways 1981
TTITLE3=Eduardo De Crescenzo - L'odore Del Mare 1987
TTITLE4=Pierangelo Bertoli - Pescatore 1980
TTITLE5=Lucio Dalla - Sulla Rotta Di Cristoforo Colombo 1972
TTITLE6=Umberto Bindi - Il Mare 1969
TTITLE7=Nico Fidenco - Legata A Un Granello Di Sabbia 1961
TTITLE8=Piero Focaccia - Stessa Spiaggia Stesso Mare 1963
TTITLE9=Edoardo Vianello - Pinne, Fucile E Occhiali 1962
TTITLE10=Aleandro Baldi - La Nave Va 1986
TTITLE11=Loredana Bertè - In Alto Mare 1980
TTITLE12=Lucio Dalla - La Casa In Riva Al Mare 1971
TTITLE13=Mina - La Barca 1964
EXTD=
EXTT0=
EXTT1=
EXTT2=
EXTT3=
EXTT4=
EXTT5=
EXTT6=
EXTT7=
EXTT8=
EXTT9=
EXTT10=
EXTT11=
EXTT12=
EXTT13=
PLAYORDER=
